#!OML:ASF E:\Style6\Style6.ASF
:FULLY-SPECIFIED
:DEGREES
1452
root 0.403225 18.2667 1.01782 12.9271 -2.13431 -4.65574
lowerback 2.31855 -1.84972 3.06054
upperback -7.61921 -2.03378 3.24225
thorax -9.34177 -1.0861 1.94318
lowerneck -11.2487 1.35019 2.21167
upperneck 21.9249 2.06049 -2.87296
head 8.7446 0.844974 -1.12246
rclavicle 2.86126e-014 -7.95139e-015
rhumerus 5.1433 -29.0607 4.60442
rradius 47.8342
rwrist 14.6971
rhand 13.3928 -1.26431
rfingers 7.12502
rthumb 38.3367 -26.9711
lclavicle 2.86126e-014 -7.95139e-015
lhumerus -136.612 -53.538 174.622
lradius 93.0499
lwrist 35.8039
lhand -7.7831 7.55401
lfingers 7.12502
lthumb 18.1175 36.7302
rfemur -8.44412 13.917 20.6136
rtibia 1.19271e-014
rfoot -1.33107 -16.1167
rtoes 0.0153957
lfemur -14.8628 -14.6576 -11.1803
ltibia 18.12
lfoot -8.04812 18.2875
ltoes -10.5845
1453
root 0.402593 18.2663 1.01081 12.8791 -2.16195 -4.63625
lowerback 2.37448 -1.86399 3.00574
upperback -7.59282 -2.05476 3.24725
thorax -9.34306 -1.09195 1.98245
lowerneck -11.2207 1.36755 2.26373
upperneck 21.8929 2.0855 -2.92502
head 8.73028 0.855978 -1.14612
rclavicle -7.41715e-015 -2.34566e-014
rhumerus 5.22622 -29.1097 4.55297
rradius 47.9616
rwrist 14.6836
rhand 13.9042 -0.847627
rfingers 7.12502
rthumb 38.8192 -26.4192
lclavicle -7.41715e-015 -2.34566e-014
lhumerus -136.489 -53.5355 174.511
lradius 92.9858
lwrist 35.7506
lhand -7.63665 7.54443
lfingers 7.12502
lthumb 18.2584 36.7075
rfemur -8.41908 13.9913 20.5881
rtibia 3.65764e-014
rfoot -1.28228 -16.1735
rtoes -0.469439
lfemur -14.8239 -14.6844 -11.2101
ltibia 18.1004
lfoot -7.98539 18.3685
ltoes -10.762
1454
root 0.403183 18.2655 1.00425 12.875 -2.13109 -4.61167
lowerback 2.40221 -1.85726 2.9999
upperback -7.5841 -2.04754 3.21285
thorax -9.35079 -1.08935 1.94917
lowerneck -11.2582 1.33637 2.33247
upperneck 21.9036 2.03136 -2.94249
head 8.7402 0.834 -1.16941
rclavicle 1.65612e-014 3.97569e-016
rhumerus 5.15939 -29.1907 4.60592
rradius 48.03
rwrist 14.7231
rhand 14.0392 -0.705381
rfingers 7.12502
rthumb 38.9465 -26.2407
lclavicle 1.65612e-014 3.97569e-016
lhumerus -136.631 -53.5647 174.645
lradius 92.9597
lwrist 35.7886
lhand -7.60592 7.54551
lfingers 7.12502
lthumb 18.288 36.7058
rfemur -8.42926 14.0071 20.5546
rtibia -3.10104e-014
rfoot -1.37311 -16.2189
rtoes 0.245969
lfemur -14.8517 -14.7676 -11.2171
ltibia 18.0967
lfoot -7.94904 18.4229
ltoes -10.9248
1455
root 0.403715 18.2664 0.99864 12.9138 -2.06039 -4.55938
lowerback 2.37635 -1.86333 2.9829
upperback -7.59182 -2.06147 3.1673
thorax -9.34452 -1.09696 1.91082
lowerneck -11.3028 1.29597 2.36003
upperneck 21.9218 1.95794 -2.89532
head 8.75229 0.80617 -1.16599
rclavicle 7.70291e-015 -3.06128e-014
rhumerus 5.07389 -29.245 4.64768
rradius 48.1048
rwrist 14.7055
rhand 14.0279 -0.632483
rfingers 7.12502
rthumb 38.9358 -26.1709
lclavicle 7.70291e-015 -3.06128e-014
lhumerus -136.757 -53.6085 174.775
lradius 92.908
lwrist 35.8152
lhand -7.57525 7.58455
lfingers 7.12502
lthumb 18.3175 36.7421
rfemur -8.47712 13.9786 20.4931
rtibia -3.97569e-015
rfoot -1.34186 -16.2592
rtoes 0.0134752
lfemur -14.9348 -14.8044 -11.2382
ltibia 18.0976
lfoot -7.99765 18.3694
ltoes -10.719
1456
root 0.405901 18.2663 0.994763 12.9215 -2.02281 -4.6343
lowerback 2.34213 -1.89751 3.08697
upperback -7.58264 -2.09855 3.21528
thorax -9.31688 -1.12076 1.90594
lowerneck -11.2702 1.30611 2.28809
upperneck 21.9281 1.98557 -2.88693
head 8.74842 0.814241 -1.14819
rclavicle -1.25234e-014 3.26007e-014
rhumerus 5.23074 -29.3117 4.57228
rradius 48.1963
rwrist 14.7552
rhand 14.097 -0.6263
rfingers 7.12502
rthumb 39.001 -26.146
lclavicle -1.25234e-014 3.26007e-014
lhumerus -136.552 -53.6002 174.642
lradius 92.8421
lwrist 35.7946
lhand -7.52464 7.5862
lfingers 7.12502
lthumb 18.3662 36.7392
rfemur -8.48856 14.0117 20.5641
rtibia -1.59028e-014
rfoot -1.43479 -16.3222
rtoes 0.609823
lfemur -14.957 -14.817 -11.1475
ltibia 18.1018
lfoot -8.05625 18.3205
ltoes -10.1083
1457
root 0.408106 18.2657 0.991049 12.9346 -2.05845 -4.66445
lowerback 2.29301 -1.90158 3.13194
upperback -7.57152 -2.10122 3.25047
thorax -9.27618 -1.12394 1.91587
lowerneck -11.2585 1.31522 2.18499
upperneck 21.9653 2.00935 -2.83844
head 8.75812 0.821793 -1.11204
rclavicle 4.82053e-015 -3.33958e-014
rhumerus 5.34971 -29.2532 4.58221
rradius 48.3352
rwrist 14.7473
rhand 14.3504 -0.453664
rfingers 7.12502
rthumb 39.2398 -25.9046
lclavicle 4.82053e-015 -3.33958e-014
lhumerus -136.455 -53.5615 174.601
lradius 92.8248
lwrist 35.7527
lhand -7.57491 7.57898
lfingers 7.12502
lthumb 18.3178 36.7365
rfemur -8.53549 14.1047 20.5665
rtibia 1.90833e-014
rfoot -1.41324 -16.4029
rtoes 0.686655
lfemur -14.9612 -14.7988 -11.1258
ltibia 18.0861
lfoot -8.02507 18.3426
ltoes -10.0156
1458
root 0.409504 18.2666 0.986923 12.957 -2.08502 -4.61797
lowerback 2.24815 -1.87716 3.12579
upperback -7.56632 -2.07425 3.21146
thorax -9.24483 -1.11201 1.87272
lowerneck -11.3083 1.29228 2.23725
upperneck 22.008 1.96553 -2.83404
head 8.78122 0.805368 -1.12415
rclavicle 3.14204e-014 -1.43125e-014
rhumerus 5.27084 -29.1486 4.69878
rradius 48.4947
rwrist 14.6411
rhand 14.3053 -0.0531082
rfingers 7.12502
rthumb 39.1974 -25.5163
lclavicle 3.14204e-014 -1.43125e-014
lhumerus -136.605 -53.5573 174.747
lradius 92.8033
lwrist 35.7876
lhand -7.6029 7.5541
lfingers 7.12502
lthumb 18.2909 36.7141
rfemur -8.59247 14.1715 20.4912
rtibia 1.59028e-015
rfoot -1.16251 -16.4481
rtoes -1.10547
lfemur -15.006 -14.7701 -11.1836
ltibia 18.0956
lfoot -7.9648 18.3562
ltoes -10.5532
1459
root 0.410371 18.2674 0.982297 12.9614 -2.10033 -4.54641
lowerback 2.23938 -1.85871 3.07261
upperback -7.56786 -2.05723 3.16245
thorax -9.24055 -1.1019 1.84807
lowerneck -11.3295 1.27754 2.37094
upperneck 22.053 1.92765 -2.87744
head 8.8012 0.793753 -1.16572
rclavicle 3.6154e-015 -1.90833e-014
rhumerus 5.17744 -29.1122 4.79215
rradius 48.6286
rwrist 14.63
rhand 14.0067 0.190394
rfingers 7.12502
rthumb 38.9159 -25.3537
lclavicle 3.6154e-015 -1.90833e-014
lhumerus -136.762 -53.5378 174.869
lradius 92.7858
lwrist 35.8066
lhand -7.69644 7.54955
lfingers 7.12502
lthumb 18.2009 36.718
rfemur -8.61977 14.2212 20.396
rtibia 2.06736e-014
rfoot -1.01973 -16.4937
rtoes -2.61941
lfemur -15.0353 -14.8113 -11.2549
ltibia 18.1042
lfoot -7.97532 18.3994
ltoes -10.6389
1460
root 0.41231 18.2667 0.978763 12.9822 -2.08123 -4.5943
lowerback 2.24269 -1.8794 3.16504
upperback -7.54912 -2.07669 3.19486
thorax -9.22482 -1.11671 1.83247
lowerneck -11.5187 1.30055 2.34327
upperneck 22.1808 1.95687 -2.84292
head 8.88056 0.806692 -1.14608
rclavicle 5.75233e-015 -1.47101e-014
rhumerus 5.31684 -29.2456 4.76989
rradius 48.7007
rwrist 14.6793
rhand 14.3306 0.175494
rfingers 7.12502
rthumb 39.2211 -25.2808
lclavicle 5.75233e-015 -1.47101e-014
lhumerus -136.604 -53.5988 174.721
lradius 92.7662
lwrist 35.8663
lhand -7.66673 7.6299
lfingers 7.12502
lthumb 18.2295 36.7957
rfemur -8.65751 14.2655 20.4284
rtibia 3.97569e-015
rfoot -1.08075 -16.5573
rtoes -2.29253
lfemur -15.0663 -14.8075 -11.2005
ltibia 18.0942
lfoot -7.85454 18.4529
ltoes -11.0141
1461
root 0.415652 18.2677 0.973069 13.016 -2.0689 -4.66033
lowerback 2.25018 -1.90718 3.28673
upperback -7.52693 -2.10006 3.27352
thorax -9.20765 -1.13354 1.85022
lowerneck -11.7124 1.3164 2.22616
upperneck 22.286 2.00921 -2.86972
head 8.95351 0.816532 -1.12941
rclavicle -2.44754e-014 -1.19271e-014
rhumerus 5.5852 -29.4637 4.73373
rradius 48.7476
rwrist 14.7573
rhand 14.4664 0.272861
rfingers 7.12502
rthumb 39.3491 -25.1463
lclavicle -2.44754e-014 -1.19271e-014
lhumerus -136.369 -53.678 174.568
lradius 92.7553
lwrist 35.9543
lhand -7.66083 7.70418
lfingers 7.12502
lthumb 18.2352 36.8694
rfemur -8.72371 14.3188 20.4654
rtibia -7.95139e-015
rfoot -1.1048 -16.611
rtoes -1.84548
lfemur -15.114 -14.7802 -11.1251
ltibia 18.0677
lfoot -7.74152 18.433
ltoes -11.4605
1462
root 0.417781 18.2686 0.966957 13.0185 -2.09444 -4.62869
lowerback 2.21728 -1.90206 3.27186
upperback -7.52389 -2.09472 3.2925
thorax -9.18343 -1.12908 1.87642
lowerneck -11.5741 1.28551 2.24418
upperneck 22.2164 1.98629 -2.97096
head 8.90421 0.798041 -1.16965
rclavicle -1.31571e-014 2.78299e-015
rhumerus 5.74727 -29.6335 4.70041
rradius 48.8376
rwrist 14.8823
rhand 14.2784 0.547345
rfingers 7.12502
rthumb 39.172 -24.9232
lclavicle -1.31571e-014 2.78299e-015
lhumerus -136.317 -53.6772 174.561
lradius 92.6887
lwrist 36.012
lhand -7.50896 7.70377
lfingers 7.12502
lthumb 18.3813 36.8553
rfemur -8.76099 14.3858 20.3997
rtibia 7.15625e-015
rfoot -1.19627 -16.6686
rtoes -1.07291
lfemur -15.1322 -14.7604 -11.1671
ltibia 18.0456
lfoot -7.68889 18.4379
ltoes -11.8298
